<svg version="1.1" viewBox="0 0 2048 2048" xmlns="http://www.w3.org/2000/svg">
  <path transform="translate(0)" d="m0 0h2048v2048h-2048z" fill="#212527"/>
  <path transform="translate(1038,229)" d="m0 0h1l1 160 7 8 15 16 205 205 7 8 32 32 8 7 361 361-1 5-7 7-7 8-107 107-7 8-13 13-7 8-27 27-8 7-53 53-7 8-22 22-8 7-14 14-8 7-20 20-7 8-24 24-7 8-18 18-8 7-17 17-8 7-12 12-7 8-57 57-8 7-31 31h-2l-2 4-109 109-1 4 34-34 2 1-35 35-2 1v160l-5-2-8-6-13-12-20-20v-2h-2l-7-8-12-12-2-4-6-7 4 2 7 7-4-5-13-13-8-7-30-30v-2h-2l-7-8-9-9 4 5-1 2-5-4-8-6-19-19v-2h-2l-2-5-3-4 4 2 7 7-4-5-11-11-8-7-54-54v-2h-2l-7-8-13-13-3-2v-2l-4-2-86-86v-2l-4-2-92-92-7-8-10-9-196-196v-2h-2v-2l-4-2-78-78-7-8-34-34-7-8-5-5 2-4 15-15 7-8 16-15 22-22 7-8 32-32 8-7 69-69 1-2h2l2-4 8-8h2v-2l8-7 78-78 7-8 16-16 8-7 67-67 7-8 28-28h2v-2l8-7 26-26 8-7 16-17 16-16 7-8 13-13 8-7 69-69 1-2h2l2-4 16-16h2v-2l8-7 26-26 8-7 12-12 1-2h2l2-4 18-18 7-8 36-36 8-7 11-11 1-4 9-9-5 4-12 12-8 7-14 14-1 2-2-1 7-8 26-26 8-7 21-21 8-7 3-3 2 1-4 5h-2l-2 5-17 17 7-6 12-12h2v-2l6-5z" fill="#FDFDFD"/>
  <path transform="translate(1037,468)" d="m0 0 2 1v156l7 8 8 7 58 58 7 8 12 12h-3l-80-80-7-5 4 5 59 59 7 8 17 17 8 7 78 78 5 3 1 3 4 2 6 5v2l3 1v2l4 2 16 16 8 7v2l4 2 12 12 7 8 9 8 3 3v2l3 1v2h2l4 5 2 1v2l3 1v2h2l6 8 2 1v2l3 1 7 8 21 21 2 4 5 5v2l4 2 61 61 7 8 3 2-1 4-8 9h-2l-1 4 5-4 4-6 3-3 2-3-6-7-4-5-35-35v-2l4 2 33 33 7 8 4 6-1 4-9 10-7 8-9 9-1 2h-2l-2 4-23 23-8 7-15 15-8 7-31 31-7 8-16 17-25 25-8 7-9 9-8 7-30 30-7 8-9 9-7 8-17 17-8 7-13 13-8 7-37 37-7 8-57 57-8 10-1 2-1 33v117h-3l-7-8-11-9 4 5 9 10 2 5-5-3-30-30-7-8-36-36-2-1v-2l-4-2-22-22-7-8-38-38-8-7-46-46v-2h-2l-7-8-46-46-8-7-36-36-7-8-61-61-8-7-14-14v-2h-2l-7-8-122-122-7-8-23-23 2-5 7-9 7-7 7-8 28-28 8-7 39-39 7-8 60-60 8-7 15-15 7-8 10-10 7-8 15-14 73-73 7-8 12-11 44-44 8-7 25-25 7-8 144-144 11-9z" fill="#212527"/>
  <path transform="translate(1038,708)" d="m0 0h1l1 162 9 11 39 39 8 7 43 43 7 8 22 22 8 7 13 13 5 6-1 6-6 8-6 7h-2v2l-8 7-15 15-8 7-16 15-92 92 1 1 4 1-5 4v159l-5-1-11-9-32-32-7-8-43-43-2-6h-2l-4-5-2-2 1-3h-4l-2-1-1-4-14-14-7-8-17-17v2h-2l-3-4-2-4-3-1v-2l-3-1-5-5v-2l-3-1v-2h-2l-3-4v-2l-12-12-8-7-30-30-5-2-4-5-2-1v-2l-4-2-5-6-2-1v-2l-3-1v-2l-6-2-41-41-1-6h-2l-1-4-16-16 1-4 8-7 18-18 8-7 31-31 7-8 61-61 8-7 39-39 7-8 50-50 8-7 25-25 7-8 32-32 7-8z" fill="#FDFDFD"/>
</svg>
